<svg xmlns="http://www.w3.org/2000/svg" version="1.1" viewBox="-0.600000 -8.600000 13.200000 9.200000" data-model-id="mdl_showcase_house" data-revision="7" data-building-id="bld_showcase_house" data-floor-id="flr_ground"><g id="floor-flr_ground" data-entity-id="flr_ground" data-entity-type="floor" transform="scale(1 -1)"><g id="rooms"><path id="room-rom_ground_kitchen" data-entity-id="rom_ground_kitchen" data-entity-type="room" d="M 8.100000 0.100000 L 11.900000 0.100000 L 11.900000 4.900000 L 8.100000 4.900000 L 8.100000 0.100000 Z" fill="#f6f2e8" fill-rule="evenodd" stroke="#8c7f6b" stroke-width="0.010000" /><path id="room-rom_ground_living" data-entity-id="rom_ground_living" data-entity-type="room" d="M 0.100000 0.100000 L 7.900000 0.100000 L 7.900000 4.900000 L 0.100000 4.900000 L 0.100000 0.100000 Z" fill="#f6f2e8" fill-rule="evenodd" stroke="#8c7f6b" stroke-width="0.010000" /><path id="room-rom_ground_office" data-entity-id="rom_ground_office" data-entity-type="room" d="M 0.100000 5.100000 L 5.900000 5.100000 L 5.900000 7.900000 L 0.100000 7.900000 L 0.100000 5.100000 Z" fill="#f6f2e8" fill-rule="evenodd" stroke="#8c7f6b" stroke-width="0.010000" /><path id="room-rom_ground_service" data-entity-id="rom_ground_service" data-entity-type="room" d="M 6.100000 5.100000 L 11.900000 5.100000 L 11.900000 7.900000 L 6.100000 7.900000 L 6.100000 5.100000 Z" fill="#f6f2e8" fill-rule="evenodd" stroke="#8c7f6b" stroke-width="0.010000" /></g><g id="walls"><polygon id="wall-wal_ground_east" data-entity-id="wal_ground_east" data-entity-type="wall" points="11.900000,0.000000 11.900000,8.000000 12.100000,8.000000 12.100000,0.000000 11.900000,0.000000" fill="#30343b" stroke="#17191d" stroke-width="0.005000" /><polygon id="wall-wal_ground_north" data-entity-id="wal_ground_north" data-entity-type="wall" points="12.000000,7.900000 0.000000,7.900000 0.000000,8.100000 12.000000,8.100000 12.000000,7.900000" fill="#30343b" stroke="#17191d" stroke-width="0.005000" /><polygon id="wall-wal_ground_service" data-entity-id="wal_ground_service" data-entity-type="wall" points="5.900000,5.000000 5.900000,8.000000 6.100000,8.000000 6.100000,5.000000 5.900000,5.000000" fill="#30343b" stroke="#17191d" stroke-width="0.005000" /><polygon id="wall-wal_ground_south" data-entity-id="wal_ground_south" data-entity-type="wall" points="0.000000,0.100000 12.000000,0.100000 12.000000,-0.100000 0.000000,-0.100000 0.000000,0.100000" fill="#30343b" stroke="#17191d" stroke-width="0.005000" /><polygon id="wall-wal_ground_split_east" data-entity-id="wal_ground_split_east" data-entity-type="wall" points="7.900000,0.000000 7.900000,5.000000 8.100000,5.000000 8.100000,0.000000 7.900000,0.000000" fill="#30343b" stroke="#17191d" stroke-width="0.005000" /><polygon id="wall-wal_ground_split_north" data-entity-id="wal_ground_split_north" data-entity-type="wall" points="0.000000,5.100000 12.000000,5.100000 12.000000,4.900000 0.000000,4.900000 0.000000,5.100000" fill="#30343b" stroke="#17191d" stroke-width="0.005000" /><polygon id="wall-wal_ground_west" data-entity-id="wal_ground_west" data-entity-type="wall" points="0.100000,8.000000 0.100000,0.000000 -0.100000,0.000000 -0.100000,8.000000 0.100000,8.000000" fill="#30343b" stroke="#17191d" stroke-width="0.005000" /></g><g id="doors"><line id="door-dor_ground_entry" data-entity-id="dor_ground_entry" data-entity-type="door" data-host-wall-id="wal_ground_south" x1="1.450000" y1="0.000000" x2="2.550000" y2="0.000000" stroke="#fffdf7" stroke-width="0.240000" stroke-linecap="butt" /></g><g id="windows"><line id="window-win_ground_east" data-entity-id="win_ground_east" data-entity-type="window" data-host-wall-id="wal_ground_east" x1="12.000000" y1="1.600000" x2="12.000000" y2="3.400000" stroke="#3c91e6" stroke-width="0.240000" stroke-linecap="butt" /><line id="window-win_ground_south" data-entity-id="win_ground_south" data-entity-type="window" data-host-wall-id="wal_ground_south" x1="4.800000" y1="0.000000" x2="7.200000" y2="0.000000" stroke="#3c91e6" stroke-width="0.240000" stroke-linecap="butt" /></g><g id="stairs" /></g></svg>