<svg xmlns="http://www.w3.org/2000/svg" version="1.1" viewBox="-0.600000 -6.600000 9.200000 7.200000" data-model-id="mdl_simple_house" data-revision="0" data-building-id="bld_simple_house" data-floor-id="flr_ground"><g id="floor-flr_ground" data-entity-id="flr_ground" data-entity-type="floor" transform="scale(1 -1)"><g id="rooms"><path id="room-rom_living" data-entity-id="rom_living" data-entity-type="room" d="M 0.100000 0.100000 L 7.900000 0.100000 L 7.900000 5.900000 L 0.100000 5.900000 L 0.100000 0.100000 Z" fill="#f6f2e8" fill-rule="evenodd" stroke="#8c7f6b" stroke-width="0.010000" /></g><g id="walls"><polygon id="wall-wal_east" data-entity-id="wal_east" data-entity-type="wall" points="7.900000,0.000000 7.900000,6.000000 8.100000,6.000000 8.100000,0.000000 7.900000,0.000000" fill="#30343b" stroke="#17191d" stroke-width="0.005000" /><polygon id="wall-wal_north" data-entity-id="wal_north" data-entity-type="wall" points="8.000000,5.900000 0.000000,5.900000 0.000000,6.100000 8.000000,6.100000 8.000000,5.900000" fill="#30343b" stroke="#17191d" stroke-width="0.005000" /><polygon id="wall-wal_south" data-entity-id="wal_south" data-entity-type="wall" points="0.000000,0.100000 8.000000,0.100000 8.000000,-0.100000 0.000000,-0.100000 0.000000,0.100000" fill="#30343b" stroke="#17191d" stroke-width="0.005000" /><polygon id="wall-wal_west" data-entity-id="wal_west" data-entity-type="wall" points="0.100000,6.000000 0.100000,0.000000 -0.100000,0.000000 -0.100000,6.000000 0.100000,6.000000" fill="#30343b" stroke="#17191d" stroke-width="0.005000" /></g><g id="doors"><line id="door-dor_entry" data-entity-id="dor_entry" data-entity-type="door" data-host-wall-id="wal_south" x1="1.050000" y1="0.000000" x2="1.950000" y2="0.000000" stroke="#fffdf7" stroke-width="0.240000" stroke-linecap="butt" /></g><g id="windows"><line id="window-win_south" data-entity-id="win_south" data-entity-type="window" data-host-wall-id="wal_south" x1="4.100000" y1="0.000000" x2="5.900000" y2="0.000000" stroke="#3c91e6" stroke-width="0.240000" stroke-linecap="butt" /></g><g id="stairs" /></g></svg>